<svg xmlns="http://www.w3.org/2000/svg" width="682.667" height="682.667"
     viewBox="0 0 512.000000 512.000000">
    <path d="M247.8 36.3c-11.5 12.3-12.5 13.4-22.1 24.7-4.9 5.8-9.9 11.6-11.1 13-2.7 3.1-17.2 22.2-20.9 27.5-31.9 45.6-49.1 80.4-57.6 116.5-2.9 12.8-3.3 16.1-3.6 33-.3 17.5.7 27.9 4.1 43 9.7 43.2 36.7 79.1 73.6 97.8 8 4.1 17.9 8 21.3 8.3.6.1 2.1.6 3.5 1.1 1.3.5 4.3 1.1 6.5 1.4 2.2.3 4.6.7 5.3.9.9.3 1.2 8.8 1.2 37.9 0 41.8-.1 41.1 7 42.2 2.8.5 4 .1 6.3-2l2.7-2.5V403.4l2.9-.2c4.3-.3 17.9-3.9 24.1-6.4 34.4-13.6 63-43 76.9-79.1 6.1-16 7.7-22.1 10.7-41.4 1-6.2 1.2-34.3.3-40.8-1.5-11.6-1.7-12.8-2.9-17.5-8.5-33.6-23.8-66.4-48.2-102.9-3.9-5.8-7.5-10.8-8-10.9-.4-.2-.8-.8-.8-1.3 0-.9-7.3-10.7-18.9-25.4-6.9-8.7-22-26.4-28.1-32.9-8.2-8.8-15.9-16.6-16.2-16.5-.2 0-3.8 3.7-8 8.2z"/>
</svg>